# xmcd CD database file
#
# Track frame offsets:
#	150
#	14100
#	37947
#	53155
#	69737
#	81440
#	91060
#	102720
#	115782
#	129855
#	140747
#	150302
#	163225
#	180297
#	195365
#	206350
#
# Disc length: 3084 seconds
#
# Revision: 1
# Processed by: cddbd v1.5.2PL0 Copyright (c) Steve Scherf et al.
# Submitted via: CDex 1.70beta2
#
DISCID=d20c0a10
DTITLE=Ike and Tina Turner - Too Hot to Hold
DYEAR=2002
DGENRE=Soul
TTITLE0=It's Gonna Work out Fine
TTITLE1=A Fool for You
TTITLE2=Crazy about you Baby
TTITLE3=I Can't Stop Loving You
TTITLE4=Somebody Somewhere Needs You
TTITLE5=Too Hot to Hold
TTITLE6=Cussin', Cryin' and Carryin' On
TTITLE7=I Know
TTITLE8=It Sho' Ain't Me
TTITLE9=You Got What You Wanted
TTITLE10=Ain't Nobody's Business
TTITLE11=Can't Kiss Me
TTITLE12=I Smell Trouble
TTITLE13=It's All Over
TTITLE14=Nothing You can do Boy
TTITLE15=All I Could Do Was Cry
EXTD=YEAR: 2002
EXTT0=
EXTT1=
EXTT2=
EXTT3=
EXTT4=
EXTT5=
EXTT6=
EXTT7=
EXTT8=
EXTT9=
EXTT10=
EXTT11=
EXTT12=
EXTT13=
EXTT14=
EXTT15=
PLAYORDER=
